{"title":"Stephen Kings Thinner [1996] DVDRip","uid":5594368,"size":493727052,"categoryP":"video","categoryS":"movies","magnet":"?xt=urn:btih:a1744c06fc024bd718375d2b651039c3cfaca154&amp;dn=Stephen+Kings+Thinner+%5B1996%5D+DVDRip&amp;tr=udp%3A%2F%2Ftracker.openbittorrent.com%3A80&amp;tr=udp%3A%2F%2Fopen.demonii.com%3A1337&amp;tr=udp%3A%2F%2Ftracker.coppersurfer.tk%3A6969&amp;tr=udp%3A%2F%2Fexodus.desync.com%3A6969","seeders":3,"leechers":0,"uploader":"neon","files":-1,"time":1274979948,"description":"Plot: A fat Lawyer finds himself growing &quot;Thinner&quot; when an old gypsy man places a hex on him. Now the lawyer must call upon his friends in organized crime to help him persuade the gypsy to lift the curse. Time is running out for the desperate lawyer as he draws closer to his own death, and grows ever thinner.\n\n \n\n\nRobert John Burke... Billy Halleck\nJoe Mantegna ... Richie Ginelli\nLucinda Jenney ... Heidi Halleck\nMichael Constantine... Tadzu Lempke\nKari Wuhrer ... Gina Lempke\nBethany Joy Galeotti... Linda Halleck (as Joie Lenz)\nTime Winters ... Prosecutor\nHoward Erskine ... Judge Phillips\nTerrence Garmey ... Bailiff\nRandy Jurgensen ... Court Clerk\nJeff Ware ... Max Duggenfield\nAntonette Schwartzberg...Mama Ginelli\nTerence Kava ... Gabe Lempke (as Terrence Kava)\nAdriana Delphine... Gypsy Woman\nRuth Miller ... Billy's Secretary\n\n &lt;a href=&quot;\nhttp://www.imdb.com/title/tt0117894/&quot; rel=&quot;nofollow&quot; target=&quot;_NEW&quot;&gt;\nhttp://www.imdb.com/title/tt0117894/&lt;/a&gt;\n\nVideo\nID : 0\nFormat : MPEG-4 Visual\nFormat profile : Simple@L1\nFormat settings, BVOP : No\nFormat settings, QPel : No\nFormat settings, GMC : No warppoints\nFormat settings, Matrix : Default (H.263)\nCodec ID : DX50\nCodec ID/Hint : DivX 5\nDuration : 1h 31mn\nBit rate : 584 Kbps\nWidth : 512 pixels\nHeight : 384 pixels\nDisplay aspect ratio : 4:3\nFrame rate : 30.000 fps\nResolution : 8 bits\nColorimetry : 4:2:0\nScan type : Progressive\nBits/(Pixel*Frame) : 0.099\nStream size : 384 MiB (82%)\nWriting library : Lavc51.39.0\n\nAudio\nID : 1\nFormat : MPEG Audio\nFormat version : Version 1\nFormat profile : Layer 3\nCodec ID : 55\nCodec ID/Hint : MP3\nDuration : 1h 31mn\nBit rate mode : Constant\nBit rate : 128 Kbps\nChannel(s) : 2 channels\nSampling rate : 44.1 KHz\nStream size : 84.2 MiB (18%)\nAlignment : Aligned on interleaves\nInterleave, duration : 913 ms (27.38 video frames)\nInterleave, preload duration : 209 ms\n\n\n\n \nGenre: Horror | Thriller\n\n","torrent":{"xt":"urn:btih:a1744c06fc024bd718375d2b651039c3cfaca154","amp;dn":"Stephen+Kings+Thinner+%5B1996%5D+DVDRip","amp;tr":["udp%3A%2F%2Ftracker.openbittorrent.com%3A80","udp%3A%2F%2Fopen.demonii.com%3A1337","udp%3A%2F%2Ftracker.coppersurfer.tk%3A6969","udp%3A%2F%2Fexodus.desync.com%3A6969"],"infoHash":"a1744c06fc024bd718375d2b651039c3cfaca154","infoHashBuffer":{"type":"Buffer","data":[161,116,76,6,252,2,75,215,24,55,93,43,101,16,57,195,207,172,161,84]},"announce":[],"urlList":[]}}